<svg width="1290" height="486" viewBox="0 0 1290 486" fill="none" xmlns="http://www.w3.org/2000/svg">
<path d="M796.796 5.29857H736.109L708.884 65.8488L648.334 5.29857H586.71L639.525 105.222L565.754 31.4507C552.261 12.6416 527.063 0 486.003 0C444.944 0 416.917 13.3231 404.685 34.807L375.159 5.29857H304.199L270.193 46.6138L228.878 5.29857H174.103V51.7931L127.609 5.29857H0V48.556L36.4085 84.9645V168.992H0V212.249L272.427 484.676L827.022 485.869H826.443H1289.12L796.796 5.29857Z" fill="#4C459B"/>
<path d="M91.2001 48.5563V168.992H127.609V212.25H0V168.992H36.4085V48.5563H0V5.29883H127.609V48.5563H91.2001Z" fill="#E8DDBF"/>
<path d="M375.466 209.456V212.25H309.804L259.698 133.504L228.878 167.425V212.25H174.103V5.29883H228.878V96.7886L304.199 5.29883H375.159L296.107 93.0745L375.466 209.473V209.456Z" fill="#E8DDBF"/>
<path d="M446.477 145.038C448.027 162.16 459.238 177.715 488.184 177.715C514.643 177.715 524.592 168.379 524.592 154.067C524.592 139.756 516.5 133.521 500.945 131.357L455.813 126.382C418.468 122.02 396.984 100.86 396.984 65.6954C396.984 26.7654 426.237 0 486.003 0C549.807 0 575.329 30.4966 578.123 67.2288H523.962C521.781 50.7368 509.344 39.833 485.986 39.833C464.826 39.833 452.372 48.2323 452.372 61.9302C452.372 72.5103 458.59 80.2963 474.469 82.1534L513.995 86.2082C559.433 90.5698 579.98 112.037 579.98 149.382C579.98 190.152 554.459 217.548 487.23 217.548C420.001 217.548 395.416 182.06 393.236 145.038H446.46H446.477Z" fill="#E8DDBF"/>
<path d="M796.796 5.29883L719.617 152.517V212.267H664.536V152.517L586.71 5.29883H648.334L677.893 73.141C682.868 84.9648 687.536 96.4819 691.591 108.306C695.953 96.4819 700.621 84.9648 705.596 73.141L736.092 5.29883H796.779H796.796Z" fill="#E8DDBF"/>
</svg>
