<svg width="25" height="25" viewBox="0 0 25 25" fill="none" xmlns="http://www.w3.org/2000/svg">
<path d="M12.5 0C5.625 0 0 5.625 0 12.5C0 19.375 5.625 25 12.5 25C19.375 25 25 19.375 25 12.5C25 5.625 19.375 0 12.5 0ZM17.5712 18.0075C17.3362 18.0075 17.2188 17.89 16.9837 17.7725C15.22 16.7138 12.9863 16.1262 10.635 16.1262C9.34125 16.1262 7.93125 16.3612 6.755 16.5963C6.52 16.5963 6.285 16.7138 6.1675 16.7138C5.6975 16.7138 5.345 16.3612 5.345 15.8913C5.345 15.4213 5.58 15.0688 6.05 15.0688C7.57875 14.7163 9.1075 14.4812 10.7537 14.4812C13.4575 14.4812 15.9275 15.1863 18.0437 16.3625C18.2787 16.5975 18.5138 16.715 18.5138 17.185C18.2763 17.7725 17.9237 18.0075 17.5712 18.0075ZM18.8638 14.7162C18.6287 14.7162 18.3938 14.5988 18.1588 14.4812C16.16 13.1875 13.3375 12.4825 10.2812 12.4825C8.7525 12.4825 7.34125 12.7175 6.28375 12.9525C6.04875 13.07 5.93125 13.07 5.69625 13.07C5.10875 13.07 4.755 12.6 4.755 12.1287C4.755 11.5413 4.99 11.3062 5.5775 11.07C6.98875 10.7175 8.4 10.365 10.3988 10.365C13.6913 10.365 16.7475 11.1875 19.335 12.7163C19.6875 12.9513 19.9225 13.3037 19.9225 13.6575C19.805 14.245 19.4525 14.7162 18.8638 14.7162ZM20.3925 10.9525C20.1575 10.9525 20.04 10.835 19.6875 10.7175C17.3363 9.42375 13.9263 8.60125 10.6337 8.60125C8.9875 8.60125 7.22375 8.83625 5.695 9.18875C5.46 9.18875 5.3425 9.30625 4.99 9.30625C4.285 9.425 3.81375 8.83625 3.81375 8.13125C3.81375 7.42625 4.16625 7.0725 4.63625 6.955C6.51875 6.485 8.5175 6.25 10.6337 6.25C14.2787 6.25 18.0413 7.0725 20.9813 8.60125C21.3337 8.83625 21.6863 9.18875 21.6863 9.7775C21.5688 10.4825 21.0975 10.9525 20.3925 10.9525Z" fill="#E8DDBF"/>
</svg>
