<svg width="25" height="21" viewBox="0 0 25 21" fill="none" xmlns="http://www.w3.org/2000/svg">
<path d="M24.3022 3.9375C24.0711 2.56299 22.9699 1.56201 21.692 1.24951C19.7798 0.8125 16.2407 0.5 12.4116 0.5C8.58483 0.5 4.98912 0.8125 3.07459 1.24951C1.79899 1.56201 0.695577 2.49951 0.464473 3.9375C0.231104 5.5 0 7.6875 0 10.5C0 13.3125 0.231104 15.5 0.521117 17.0625C0.754486 18.437 1.85563 19.438 3.13123 19.7505C5.16132 20.1875 8.64147 20.5 12.4705 20.5C16.2996 20.5 19.7798 20.1875 21.8099 19.7505C23.0855 19.438 24.1866 18.5005 24.42 17.0625C24.6511 15.5 24.9411 13.249 25 10.5C24.8822 7.6875 24.5922 5.5 24.3022 3.9375ZM9.28041 14.875V6.125L16.3563 10.5L9.28041 14.875Z" fill="#E8DDBF"/>
</svg>
